<svg xmlns="http://www.w3.org/2000/svg" xmlns:xlink="http://www.w3.org/1999/xlink" width="465" zoomAndPan="magnify" viewBox="0 0 348.75 143.999998" height="192" preserveAspectRatio="xMidYMid meet" version="1.0"><defs><g/><clipPath id="36387cdfa6"><path d="M 3 33 L 119 33 L 119 82 L 3 82 Z M 3 33 " clip-rule="nonzero"/></clipPath><clipPath id="dada4e9530"><path d="M 0 62.800781 L 113.457031 21.722656 L 123.917969 50.613281 L 10.460938 91.695312 Z M 0 62.800781 " clip-rule="nonzero"/></clipPath><clipPath id="8a6b4a1ba9"><path d="M 0 62.800781 L 113.457031 21.722656 L 123.917969 50.613281 L 10.460938 91.695312 Z M 0 62.800781 " clip-rule="nonzero"/></clipPath><clipPath id="8524be86f3"><path d="M 11 67 L 127 67 L 127 117 L 11 117 Z M 11 67 " clip-rule="nonzero"/></clipPath><clipPath id="a78a25950d"><path d="M 7.996094 97.707031 L 121.449219 56.625 L 131.910156 85.519531 L 18.457031 126.597656 Z M 7.996094 97.707031 " clip-rule="nonzero"/></clipPath><clipPath id="60bc299120"><path d="M 7.996094 97.707031 L 121.449219 56.625 L 131.910156 85.519531 L 18.457031 126.597656 Z M 7.996094 97.707031 " clip-rule="nonzero"/></clipPath></defs><g fill="#f23636" fill-opacity="1"><g transform="translate(125.529517, 97.430989)"><g><path d="M 22.640625 1 C 18.953125 1 15.707031 0.398438 12.90625 -0.796875 C 10.113281 -1.992188 7.878906 -3.65625 6.203125 -5.78125 C 4.523438 -7.90625 3.519531 -10.367188 3.1875 -13.171875 L 14 -13.171875 C 14.332031 -11.546875 15.238281 -10.160156 16.71875 -9.015625 C 18.207031 -7.867188 20.125 -7.296875 22.46875 -7.296875 C 24.820312 -7.296875 26.539062 -7.769531 27.625 -8.71875 C 28.71875 -9.664062 29.265625 -10.753906 29.265625 -11.984375 C 29.265625 -13.773438 28.484375 -14.992188 26.921875 -15.640625 C 25.359375 -16.285156 23.175781 -16.914062 20.375 -17.53125 C 18.582031 -17.914062 16.765625 -18.390625 14.921875 -18.953125 C 13.078125 -19.515625 11.382812 -20.226562 9.84375 -21.09375 C 8.3125 -21.957031 7.070312 -23.070312 6.125 -24.4375 C 5.175781 -25.8125 4.703125 -27.503906 4.703125 -29.515625 C 4.703125 -33.203125 6.164062 -36.300781 9.09375 -38.8125 C 12.03125 -41.332031 16.15625 -42.59375 21.46875 -42.59375 C 26.382812 -42.59375 30.3125 -41.445312 33.25 -39.15625 C 36.1875 -36.863281 37.929688 -33.707031 38.484375 -29.6875 L 28.34375 -29.6875 C 27.726562 -32.757812 25.410156 -34.296875 21.390625 -34.296875 C 19.367188 -34.296875 17.8125 -33.90625 16.71875 -33.125 C 15.632812 -32.34375 15.09375 -31.363281 15.09375 -30.1875 C 15.09375 -28.957031 15.898438 -27.976562 17.515625 -27.25 C 19.140625 -26.53125 21.296875 -25.859375 23.984375 -25.234375 C 26.890625 -24.566406 29.554688 -23.828125 31.984375 -23.015625 C 34.421875 -22.203125 36.363281 -21 37.8125 -19.40625 C 39.269531 -17.820312 40 -15.546875 40 -12.578125 C 40.050781 -10.003906 39.378906 -7.679688 37.984375 -5.609375 C 36.585938 -3.546875 34.578125 -1.925781 31.953125 -0.75 C 29.328125 0.414062 26.222656 1 22.640625 1 Z M 22.640625 1 "/></g></g></g><g fill="#f23636" fill-opacity="1"><g transform="translate(166.367825, 97.430989)"><g><path d="M 5.453125 0 L 5.453125 -60.375 L 16.1875 -60.375 L 16.1875 -24.734375 L 30.9375 -41.59375 L 43.6875 -41.59375 L 26.671875 -22.640625 L 46.453125 0 L 33.046875 0 L 16.1875 -20.875 L 16.1875 0 Z M 5.453125 0 "/></g></g></g><g fill="#f23636" fill-opacity="1"><g transform="translate(210.812018, 97.430989)"><g><path d="M 11.234375 -48.046875 C 9.273438 -48.046875 7.664062 -48.632812 6.40625 -49.8125 C 5.15625 -50.988281 4.53125 -52.46875 4.53125 -54.25 C 4.53125 -56.039062 5.15625 -57.507812 6.40625 -58.65625 C 7.664062 -59.800781 9.273438 -60.375 11.234375 -60.375 C 13.191406 -60.375 14.800781 -59.800781 16.0625 -58.65625 C 17.320312 -57.507812 17.953125 -56.039062 17.953125 -54.25 C 17.953125 -52.46875 17.320312 -50.988281 16.0625 -49.8125 C 14.800781 -48.632812 13.191406 -48.046875 11.234375 -48.046875 Z M 5.875 0 L 5.875 -41.59375 L 16.609375 -41.59375 L 16.609375 0 Z M 5.875 0 "/></g></g></g><g fill="#f23636" fill-opacity="1"><g transform="translate(230.015011, 97.430989)"><g><path d="M 5.453125 18.453125 L 5.453125 -41.59375 L 15.015625 -41.59375 L 16.1875 -35.640625 C 17.53125 -37.484375 19.304688 -39.101562 21.515625 -40.5 C 23.722656 -41.894531 26.585938 -42.59375 30.109375 -42.59375 C 34.015625 -42.59375 37.503906 -41.640625 40.578125 -39.734375 C 43.660156 -37.835938 46.09375 -35.238281 47.875 -31.9375 C 49.664062 -28.644531 50.5625 -24.90625 50.5625 -20.71875 C 50.5625 -16.519531 49.664062 -12.785156 47.875 -9.515625 C 46.09375 -6.242188 43.660156 -3.671875 40.578125 -1.796875 C 37.503906 0.0664062 34.015625 1 30.109375 1 C 26.972656 1 24.226562 0.414062 21.875 -0.75 C 19.53125 -1.925781 17.632812 -3.578125 16.1875 -5.703125 L 16.1875 18.453125 Z M 27.84375 -8.390625 C 31.25 -8.390625 34.070312 -9.535156 36.3125 -11.828125 C 38.550781 -14.117188 39.671875 -17.082031 39.671875 -20.71875 C 39.671875 -24.351562 38.550781 -27.34375 36.3125 -29.6875 C 34.070312 -32.03125 31.25 -33.203125 27.84375 -33.203125 C 24.375 -33.203125 21.535156 -32.039062 19.328125 -29.71875 C 17.117188 -27.40625 16.015625 -24.429688 16.015625 -20.796875 C 16.015625 -17.160156 17.117188 -14.179688 19.328125 -11.859375 C 21.535156 -9.546875 24.375 -8.390625 27.84375 -8.390625 Z M 27.84375 -8.390625 "/></g></g></g><g fill="#f23636" fill-opacity="1"><g transform="translate(281.503258, 97.430989)"><g><path d="M 4.28125 0 L 4.28125 -7.796875 C 7.851562 -10.765625 11.332031 -13.703125 14.71875 -16.609375 C 18.101562 -19.515625 21.117188 -22.390625 23.765625 -25.234375 C 26.421875 -28.085938 28.546875 -30.867188 30.140625 -33.578125 C 31.734375 -36.296875 32.53125 -38.941406 32.53125 -41.515625 C 32.53125 -43.910156 31.875 -46.03125 30.5625 -47.875 C 29.25 -49.726562 27.082031 -50.65625 24.0625 -50.65625 C 20.988281 -50.65625 18.671875 -49.644531 17.109375 -47.625 C 15.546875 -45.613281 14.765625 -43.1875 14.765625 -40.34375 L 4.359375 -40.34375 C 4.472656 -44.644531 5.421875 -48.234375 7.203125 -51.109375 C 8.992188 -53.992188 11.367188 -56.144531 14.328125 -57.5625 C 17.296875 -58.988281 20.625 -59.703125 24.3125 -59.703125 C 30.300781 -59.703125 34.957031 -58.066406 38.28125 -54.796875 C 41.601562 -51.523438 43.265625 -47.289062 43.265625 -42.09375 C 43.265625 -38.851562 42.523438 -35.695312 41.046875 -32.625 C 39.566406 -29.550781 37.625 -26.585938 35.21875 -23.734375 C 32.8125 -20.878906 30.210938 -18.207031 27.421875 -15.71875 C 24.628906 -13.226562 21.914062 -10.925781 19.28125 -8.8125 L 44.703125 -8.8125 L 44.703125 0 Z M 4.28125 0 "/></g></g></g><g fill="#f23636" fill-opacity="1"><g transform="translate(84.921538, 126.280981)"><g><path d="M 2.28125 0 L 2.28125 -17.421875 L 6.25 -17.421875 L 6.59375 -14.46875 C 7.132812 -15.5 7.914062 -16.316406 8.9375 -16.921875 C 9.957031 -17.523438 11.15625 -17.828125 12.53125 -17.828125 C 14.6875 -17.828125 16.359375 -17.148438 17.546875 -15.796875 C 18.742188 -14.441406 19.34375 -12.453125 19.34375 -9.828125 L 19.34375 0 L 14.84375 0 L 14.84375 -9.40625 C 14.84375 -10.90625 14.539062 -12.050781 13.9375 -12.84375 C 13.332031 -13.644531 12.382812 -14.046875 11.09375 -14.046875 C 9.832031 -14.046875 8.796875 -13.597656 7.984375 -12.703125 C 7.179688 -11.816406 6.78125 -10.578125 6.78125 -8.984375 L 6.78125 0 Z M 2.28125 0 "/></g></g></g><g fill="#f23636" fill-opacity="1"><g transform="translate(104.93482, 126.280981)"><g><path d="M 10.75 0.421875 C 8.988281 0.421875 7.425781 0.046875 6.0625 -0.703125 C 4.707031 -1.453125 3.644531 -2.503906 2.875 -3.859375 C 2.101562 -5.210938 1.71875 -6.78125 1.71875 -8.5625 C 1.71875 -10.363281 2.097656 -11.96875 2.859375 -13.375 C 3.617188 -14.78125 4.671875 -15.875 6.015625 -16.65625 C 7.367188 -17.4375 8.957031 -17.828125 10.78125 -17.828125 C 12.488281 -17.828125 14 -17.453125 15.3125 -16.703125 C 16.625 -15.960938 17.644531 -14.941406 18.375 -13.640625 C 19.113281 -12.335938 19.484375 -10.890625 19.484375 -9.296875 C 19.484375 -9.046875 19.476562 -8.78125 19.46875 -8.5 C 19.457031 -8.21875 19.441406 -7.925781 19.421875 -7.625 L 6.171875 -7.625 C 6.265625 -6.257812 6.738281 -5.191406 7.59375 -4.421875 C 8.445312 -3.648438 9.484375 -3.265625 10.703125 -3.265625 C 11.617188 -3.265625 12.382812 -3.46875 13 -3.875 C 13.625 -4.289062 14.085938 -4.828125 14.390625 -5.484375 L 18.953125 -5.484375 C 18.628906 -4.378906 18.085938 -3.375 17.328125 -2.46875 C 16.566406 -1.570312 15.628906 -0.863281 14.515625 -0.34375 C 13.398438 0.164062 12.144531 0.421875 10.75 0.421875 Z M 10.78125 -14.1875 C 9.675781 -14.1875 8.703125 -13.875 7.859375 -13.25 C 7.015625 -12.632812 6.476562 -11.691406 6.25 -10.421875 L 14.921875 -10.421875 C 14.847656 -11.566406 14.425781 -12.476562 13.65625 -13.15625 C 12.882812 -13.84375 11.925781 -14.1875 10.78125 -14.1875 Z M 10.78125 -14.1875 "/></g></g></g><g fill="#f23636" fill-opacity="1"><g transform="translate(124.596991, 126.280981)"><g><path d="M 10.046875 0 C 8.210938 0 6.742188 -0.441406 5.640625 -1.328125 C 4.546875 -2.222656 4 -3.804688 4 -6.078125 L 4 -13.65625 L 1.015625 -13.65625 L 1.015625 -17.421875 L 4 -17.421875 L 4.53125 -22.078125 L 8.5 -22.078125 L 8.5 -17.421875 L 13.203125 -17.421875 L 13.203125 -13.65625 L 8.5 -13.65625 L 8.5 -6.03125 C 8.5 -5.195312 8.675781 -4.617188 9.03125 -4.296875 C 9.394531 -3.984375 10.023438 -3.828125 10.921875 -3.828125 L 13.09375 -3.828125 L 13.09375 0 Z M 10.046875 0 "/></g></g></g><g fill="#f23636" fill-opacity="1"><g transform="translate(138.044509, 126.280981)"><g><path d="M 5.6875 0 L 0.59375 -17.421875 L 5.0625 -17.421875 L 8.078125 -4.875 L 11.59375 -17.421875 L 16.578125 -17.421875 L 20.078125 -4.875 L 23.140625 -17.421875 L 27.59375 -17.421875 L 22.46875 0 L 17.796875 0 L 14.078125 -13.03125 L 10.359375 0 Z M 5.6875 0 "/></g></g></g><g fill="#f23636" fill-opacity="1"><g transform="translate(164.869323, 126.280981)"><g><path d="M 10.640625 0.421875 C 8.953125 0.421875 7.4375 0.0351562 6.09375 -0.734375 C 4.75 -1.503906 3.679688 -2.570312 2.890625 -3.9375 C 2.109375 -5.3125 1.71875 -6.898438 1.71875 -8.703125 C 1.71875 -10.503906 2.113281 -12.085938 2.90625 -13.453125 C 3.707031 -14.828125 4.78125 -15.898438 6.125 -16.671875 C 7.46875 -17.441406 8.984375 -17.828125 10.671875 -17.828125 C 12.335938 -17.828125 13.84375 -17.441406 15.1875 -16.671875 C 16.53125 -15.898438 17.59375 -14.828125 18.375 -13.453125 C 19.164062 -12.085938 19.5625 -10.503906 19.5625 -8.703125 C 19.5625 -6.898438 19.164062 -5.3125 18.375 -3.9375 C 17.59375 -2.570312 16.519531 -1.503906 15.15625 -0.734375 C 13.800781 0.0351562 12.296875 0.421875 10.640625 0.421875 Z M 10.640625 -3.46875 C 11.804688 -3.46875 12.820312 -3.90625 13.6875 -4.78125 C 14.550781 -5.664062 14.984375 -6.972656 14.984375 -8.703125 C 14.984375 -10.441406 14.550781 -11.75 13.6875 -12.625 C 12.820312 -13.5 11.816406 -13.9375 10.671875 -13.9375 C 9.472656 -13.9375 8.445312 -13.5 7.59375 -12.625 C 6.738281 -11.75 6.3125 -10.441406 6.3125 -8.703125 C 6.3125 -6.972656 6.738281 -5.664062 7.59375 -4.78125 C 8.445312 -3.90625 9.460938 -3.46875 10.640625 -3.46875 Z M 10.640625 -3.46875 "/></g></g></g><g fill="#f23636" fill-opacity="1"><g transform="translate(184.812376, 126.280981)"><g><path d="M 2.28125 0 L 2.28125 -17.421875 L 6.28125 -17.421875 L 6.703125 -14.15625 C 7.335938 -15.269531 8.195312 -16.160156 9.28125 -16.828125 C 10.375 -17.492188 11.65625 -17.828125 13.125 -17.828125 L 13.125 -13.09375 L 11.859375 -13.09375 C 10.878906 -13.09375 10.003906 -12.941406 9.234375 -12.640625 C 8.460938 -12.335938 7.859375 -11.8125 7.421875 -11.0625 C 6.992188 -10.3125 6.78125 -9.269531 6.78125 -7.9375 L 6.78125 0 Z M 2.28125 0 "/></g></g></g><g fill="#f23636" fill-opacity="1"><g transform="translate(197.382118, 126.280981)"><g><path d="M 2.28125 0 L 2.28125 -25.28125 L 6.78125 -25.28125 L 6.78125 -10.359375 L 12.953125 -17.421875 L 18.296875 -17.421875 L 11.171875 -9.484375 L 19.453125 0 L 13.828125 0 L 6.78125 -8.75 L 6.78125 0 Z M 2.28125 0 "/></g></g></g><g fill="#f23636" fill-opacity="1"><g transform="translate(215.990962, 126.280981)"><g><path d="M 9.484375 0.421875 C 7.929688 0.421875 6.570312 0.171875 5.40625 -0.328125 C 4.238281 -0.835938 3.300781 -1.535156 2.59375 -2.421875 C 1.894531 -3.304688 1.472656 -4.335938 1.328125 -5.515625 L 5.859375 -5.515625 C 6.003906 -4.835938 6.382812 -4.253906 7 -3.765625 C 7.625 -3.285156 8.425781 -3.046875 9.40625 -3.046875 C 10.394531 -3.046875 11.113281 -3.242188 11.5625 -3.640625 C 12.019531 -4.046875 12.25 -4.503906 12.25 -5.015625 C 12.25 -5.765625 11.921875 -6.273438 11.265625 -6.546875 C 10.609375 -6.816406 9.695312 -7.082031 8.53125 -7.34375 C 7.78125 -7.5 7.019531 -7.691406 6.25 -7.921875 C 5.476562 -8.160156 4.769531 -8.460938 4.125 -8.828125 C 3.476562 -9.191406 2.957031 -9.660156 2.5625 -10.234375 C 2.164062 -10.804688 1.96875 -11.515625 1.96875 -12.359375 C 1.96875 -13.898438 2.582031 -15.195312 3.8125 -16.25 C 5.039062 -17.300781 6.765625 -17.828125 8.984375 -17.828125 C 11.046875 -17.828125 12.691406 -17.347656 13.921875 -16.390625 C 15.148438 -15.429688 15.878906 -14.109375 16.109375 -12.421875 L 11.859375 -12.421875 C 11.609375 -13.710938 10.640625 -14.359375 8.953125 -14.359375 C 8.109375 -14.359375 7.457031 -14.191406 7 -13.859375 C 6.539062 -13.535156 6.3125 -13.128906 6.3125 -12.640625 C 6.3125 -12.117188 6.648438 -11.707031 7.328125 -11.40625 C 8.015625 -11.101562 8.921875 -10.820312 10.046875 -10.5625 C 11.253906 -10.28125 12.367188 -9.96875 13.390625 -9.625 C 14.410156 -9.289062 15.222656 -8.789062 15.828125 -8.125 C 16.441406 -7.457031 16.75 -6.503906 16.75 -5.265625 C 16.769531 -4.191406 16.488281 -3.21875 15.90625 -2.34375 C 15.320312 -1.476562 14.476562 -0.800781 13.375 -0.3125 C 12.269531 0.175781 10.972656 0.421875 9.484375 0.421875 Z M 9.484375 0.421875 "/></g></g></g><g clip-path="url(#36387cdfa6)"><g clip-path="url(#dada4e9530)"><g clip-path="url(#8a6b4a1ba9)"><path fill="#f23636" d="M 31.414062 81.175781 C 22.3125 82.871094 13.433594 78.023438 6.375 72.707031 C 5.644531 72.226562 2.449219 69.566406 4 69.375 C 6.371094 69.804688 8.246094 71.769531 10.824219 71.25 C 19.273438 70.191406 27.164062 66.398438 34.566406 62.363281 C 43.8125 57.234375 52.949219 51.898438 61.835938 46.167969 C 72.847656 38.183594 86.4375 31.511719 100.289062 33.398438 C 106.183594 34.015625 111.746094 36.59375 116.367188 40.257812 C 121.945312 44.757812 116.445312 43.429688 112.867188 43.523438 C 82.828125 48.347656 60.386719 73.367188 31.417969 81.175781 Z M 31.414062 81.175781 " fill-opacity="1" fill-rule="nonzero"/></g></g></g><g clip-path="url(#8524be86f3)"><g clip-path="url(#a78a25950d)"><g clip-path="url(#60bc299120)"><path fill="#f23636" d="M 39.40625 116.082031 C 30.304688 117.773438 21.425781 112.925781 14.371094 107.613281 C 13.636719 107.132812 10.445312 104.472656 11.996094 104.277344 C 14.367188 104.707031 16.238281 106.675781 18.816406 106.15625 C 27.265625 105.097656 35.15625 101.300781 42.558594 97.265625 C 51.804688 92.136719 60.941406 86.804688 69.828125 81.070312 C 80.84375 73.089844 94.429688 66.414062 108.28125 68.304688 C 114.175781 68.921875 119.742188 71.496094 124.363281 75.160156 C 129.9375 79.660156 124.4375 78.335938 120.859375 78.429688 C 90.820312 83.253906 68.378906 108.273438 39.410156 116.082031 Z M 39.40625 116.082031 " fill-opacity="1" fill-rule="nonzero"/></g></g></g></svg>