<svg xmlns="http://www.w3.org/2000/svg" xmlns:xlink="http://www.w3.org/1999/xlink" width="438" zoomAndPan="magnify" viewBox="0 0 328.5 113.249998" height="151" preserveAspectRatio="xMidYMid meet" version="1.0"><defs><g/><clipPath id="779f8a8ce6"><path d="M 5 13 L 120 13 L 120 62 L 5 62 Z M 5 13 " clip-rule="nonzero"/></clipPath><clipPath id="8934f79e36"><path d="M 1.429688 42.636719 L 114.390625 1.738281 L 124.804688 30.503906 L 11.84375 71.40625 Z M 1.429688 42.636719 " clip-rule="nonzero"/></clipPath><clipPath id="a63673bcb7"><path d="M 1.429688 42.636719 L 114.390625 1.738281 L 124.804688 30.503906 L 11.84375 71.40625 Z M 1.429688 42.636719 " clip-rule="nonzero"/></clipPath><clipPath id="3f4f8a89fa"><path d="M 12 47 L 128 47 L 128 97 L 12 97 Z M 12 47 " clip-rule="nonzero"/></clipPath><clipPath id="89392af9c7"><path d="M 9.386719 77.390625 L 122.347656 36.488281 L 132.765625 65.257812 L 19.804688 106.15625 Z M 9.386719 77.390625 " clip-rule="nonzero"/></clipPath><clipPath id="91e11747e5"><path d="M 9.386719 77.390625 L 122.347656 36.488281 L 132.765625 65.257812 L 19.804688 106.15625 Z M 9.386719 77.390625 " clip-rule="nonzero"/></clipPath></defs><g fill="#ffffff" fill-opacity="1"><g transform="translate(129.196567, 71.147028)"><g><path d="M 19.375 -41.078125 C 25.9375 -41.078125 30.722656 -39.046875 33.734375 -34.984375 L 27.046875 -28.96875 C 25.046875 -31.695312 22.429688 -33.0625 19.203125 -33.0625 C 17.585938 -33.0625 16.207031 -32.671875 15.0625 -31.890625 C 13.925781 -31.117188 13.359375 -30.09375 13.359375 -28.8125 C 13.359375 -26.863281 15.332031 -25.46875 19.28125 -24.625 L 22.875 -23.796875 C 27.269531 -22.847656 30.382812 -21.382812 32.21875 -19.40625 C 34.0625 -17.4375 34.984375 -14.921875 34.984375 -11.859375 C 34.984375 -7.960938 33.425781 -4.84375 30.3125 -2.5 C 27.195312 -0.164062 22.96875 1 17.625 1 C 10.882812 1 5.707031 -1.054688 2.09375 -5.171875 L 8.765625 -11.4375 C 10.492188 -9.539062 12.082031 -8.242188 13.53125 -7.546875 C 14.976562 -6.859375 16.5625 -6.515625 18.28125 -6.515625 C 20.125 -6.515625 21.695312 -6.929688 23 -7.765625 C 24.3125 -8.597656 24.96875 -9.710938 24.96875 -11.109375 C 24.96875 -13.390625 22.90625 -15.003906 18.78125 -15.953125 C 13.4375 -17.171875 10.097656 -18.128906 8.765625 -18.828125 C 7.429688 -19.523438 6.359375 -20.359375 5.546875 -21.328125 C 4.742188 -22.304688 4.175781 -23.363281 3.84375 -24.5 C 3.507812 -25.644531 3.34375 -26.859375 3.34375 -28.140625 C 3.34375 -32.085938 4.859375 -35.226562 7.890625 -37.5625 C 10.921875 -39.90625 14.75 -41.078125 19.375 -41.078125 Z M 19.375 -41.078125 "/></g></g></g><g fill="#ffffff" fill-opacity="1"><g transform="translate(163.094172, 71.147028)"><g><path d="M 15.703125 -63.125 L 15.703125 -23.46875 L 31.140625 -40.078125 L 44 -40.078125 L 26.796875 -21.875 L 45.09375 0 L 31.8125 0 L 15.859375 -20.453125 L 15.703125 -20.453125 L 15.703125 0 L 5.671875 0 L 5.671875 -63.125 Z M 15.703125 -63.125 "/></g></g></g><g fill="#ffffff" fill-opacity="1"><g transform="translate(204.756587, 71.147028)"><g><path d="M 10.765625 -59.703125 C 12.609375 -59.703125 14.15625 -59.128906 15.40625 -57.984375 C 16.65625 -56.847656 17.28125 -55.414062 17.28125 -53.6875 C 17.28125 -51.90625 16.640625 -50.457031 15.359375 -49.34375 C 14.078125 -48.226562 12.546875 -47.671875 10.765625 -47.671875 C 8.984375 -47.671875 7.476562 -48.269531 6.25 -49.46875 C 5.03125 -50.664062 4.421875 -52.070312 4.421875 -53.6875 C 4.421875 -55.300781 5.03125 -56.707031 6.25 -57.90625 C 7.476562 -59.101562 8.984375 -59.703125 10.765625 -59.703125 Z M 15.859375 -40.078125 L 15.859375 0 L 5.84375 0 L 5.84375 -40.078125 Z M 15.859375 -40.078125 "/></g></g></g><g fill="#ffffff" fill-opacity="1"><g transform="translate(223.291525, 71.147028)"><g><path d="M 29.21875 -41.078125 C 35.007812 -41.078125 39.742188 -39.128906 43.421875 -35.234375 C 47.097656 -31.335938 48.9375 -26.273438 48.9375 -20.046875 C 48.9375 -14.085938 47.140625 -9.085938 43.546875 -5.046875 C 39.953125 -1.015625 35.289062 1 29.5625 1 C 23.71875 1 19.179688 -1.03125 15.953125 -5.09375 L 15.703125 -5.09375 L 15.703125 19.03125 L 5.671875 19.03125 L 5.671875 -40.078125 L 15.203125 -40.078125 L 15.203125 -34.0625 L 15.359375 -34.0625 C 18.316406 -38.738281 22.9375 -41.078125 29.21875 -41.078125 Z M 15.359375 -20.046875 C 15.359375 -16.585938 16.457031 -13.71875 18.65625 -11.4375 C 20.851562 -9.15625 23.679688 -8.015625 27.140625 -8.015625 C 30.421875 -8.015625 33.203125 -9.140625 35.484375 -11.390625 C 37.765625 -13.648438 38.90625 -16.535156 38.90625 -20.046875 C 38.90625 -23.441406 37.773438 -26.289062 35.515625 -28.59375 C 33.265625 -30.90625 30.441406 -32.0625 27.046875 -32.0625 C 23.765625 -32.0625 20.992188 -30.921875 18.734375 -28.640625 C 16.484375 -26.359375 15.359375 -23.492188 15.359375 -20.046875 Z M 15.359375 -20.046875 "/></g></g></g><g fill="#ffffff" fill-opacity="1"><g transform="translate(272.718762, 71.147028)"><g><path d="M 25.390625 -60.125 C 31.285156 -60.125 35.941406 -58.632812 39.359375 -55.65625 C 42.785156 -52.675781 44.5 -48.570312 44.5 -43.34375 C 44.5 -40.21875 43.800781 -37.304688 42.40625 -34.609375 C 41.019531 -31.910156 38.710938 -29.054688 35.484375 -26.046875 L 17.125 -9.015625 L 44.5 -9.015625 L 44.5 0 L 4.921875 0 L 4.921875 -10.609375 L 27.890625 -32.8125 C 29.785156 -34.65625 31.273438 -36.351562 32.359375 -37.90625 C 33.441406 -39.46875 33.984375 -41.109375 33.984375 -42.828125 C 33.984375 -45.285156 33.132812 -47.191406 31.4375 -48.546875 C 29.738281 -49.910156 27.722656 -50.59375 25.390625 -50.59375 C 22.929688 -50.59375 20.878906 -49.867188 19.234375 -48.421875 C 17.597656 -46.984375 16.613281 -45.035156 16.28125 -42.578125 L 5.765625 -43.421875 C 6.316406 -48.929688 8.359375 -53.09375 11.890625 -55.90625 C 15.429688 -58.71875 19.929688 -60.125 25.390625 -60.125 Z M 25.390625 -60.125 "/></g></g></g><g fill="#ffffff" fill-opacity="1"><g transform="translate(84.450938, 100.325077)"><g><path d="M 11.5625 -17.203125 C 13.476562 -17.203125 14.976562 -16.628906 16.0625 -15.484375 C 17.144531 -14.335938 17.6875 -12.753906 17.6875 -10.734375 L 17.6875 0 L 13.484375 0 L 13.484375 -8.703125 C 13.484375 -11.847656 12.460938 -13.421875 10.421875 -13.421875 C 9.234375 -13.421875 8.296875 -13.035156 7.609375 -12.265625 C 6.921875 -11.492188 6.578125 -10.484375 6.578125 -9.234375 L 6.578125 0 L 2.375 0 L 2.375 -16.78125 L 6.359375 -16.78125 L 6.359375 -14.09375 L 6.4375 -14.09375 C 7.382812 -16.164062 9.09375 -17.203125 11.5625 -17.203125 Z M 11.5625 -17.203125 "/></g></g></g><g fill="#ffffff" fill-opacity="1"><g transform="translate(103.1885, 100.325077)"><g><path d="M 10.65625 -17.203125 C 13.175781 -17.203125 15.117188 -16.359375 16.484375 -14.671875 C 17.847656 -12.992188 18.53125 -10.804688 18.53125 -8.109375 L 18.53125 -6.921875 L 5.734375 -6.921875 C 5.867188 -5.710938 6.347656 -4.742188 7.171875 -4.015625 C 8.003906 -3.296875 9.023438 -2.9375 10.234375 -2.9375 C 12.003906 -2.9375 13.507812 -3.691406 14.75 -5.203125 L 17.75 -2.9375 C 15.9375 -0.695312 13.570312 0.421875 10.65625 0.421875 C 8.09375 0.421875 5.929688 -0.390625 4.171875 -2.015625 C 2.410156 -3.648438 1.53125 -5.773438 1.53125 -8.390625 C 1.53125 -10.992188 2.410156 -13.113281 4.171875 -14.75 C 5.929688 -16.382812 8.09375 -17.203125 10.65625 -17.203125 Z M 14.328125 -10.0625 C 14.304688 -11.394531 13.898438 -12.390625 13.109375 -13.046875 C 12.316406 -13.710938 11.289062 -14.046875 10.03125 -14.046875 C 8.769531 -14.046875 7.78125 -13.675781 7.0625 -12.9375 C 6.34375 -12.207031 5.898438 -11.25 5.734375 -10.0625 Z M 14.328125 -10.0625 "/></g></g></g><g fill="#ffffff" fill-opacity="1"><g transform="translate(121.926063, 100.325077)"><g><path d="M 8.078125 -21.640625 L 8.078125 -16.78125 L 12.6875 -16.78125 L 12.6875 -13.21875 L 8.078125 -13.21875 L 8.078125 -5.765625 C 8.078125 -4.015625 8.859375 -3.140625 10.421875 -3.140625 C 11.460938 -3.140625 12.21875 -3.316406 12.6875 -3.671875 L 12.6875 -0.140625 C 11.894531 0.234375 10.789062 0.421875 9.375 0.421875 C 7.4375 0.421875 6.035156 0 5.171875 -0.84375 C 4.304688 -1.695312 3.875 -3.195312 3.875 -5.34375 L 3.875 -13.21875 L 0.421875 -13.21875 L 0.421875 -16.78125 L 3.875 -16.78125 L 3.875 -21.640625 Z M 8.078125 -21.640625 "/></g></g></g><g fill="#ffffff" fill-opacity="1"><g transform="translate(134.196367, 100.325077)"><g><path d="M 4.65625 -16.78125 L 8.28125 -5.03125 L 8.359375 -5.03125 L 11.75 -16.78125 L 16.28125 -16.78125 L 19.921875 -5.03125 L 20 -5.03125 L 23.484375 -16.78125 L 27.71875 -16.78125 L 22.015625 0 L 17.859375 0 L 13.875 -11.46875 L 13.8125 -11.46875 L 10.28125 0 L 5.9375 0 L 0.109375 -16.78125 Z M 4.65625 -16.78125 "/></g></g></g><g fill="#ffffff" fill-opacity="1"><g transform="translate(160.694639, 100.325077)"><g><path d="M 10.65625 -17.203125 C 13.21875 -17.203125 15.378906 -16.382812 17.140625 -14.75 C 18.898438 -13.113281 19.78125 -10.992188 19.78125 -8.390625 C 19.78125 -5.773438 18.898438 -3.648438 17.140625 -2.015625 C 15.378906 -0.390625 13.21875 0.421875 10.65625 0.421875 C 8.09375 0.421875 5.929688 -0.390625 4.171875 -2.015625 C 2.410156 -3.648438 1.53125 -5.773438 1.53125 -8.390625 C 1.53125 -10.992188 2.410156 -13.113281 4.171875 -14.75 C 5.929688 -16.382812 8.09375 -17.203125 10.65625 -17.203125 Z M 5.734375 -8.390625 C 5.734375 -6.898438 6.203125 -5.6875 7.140625 -4.75 C 8.085938 -3.820312 9.257812 -3.359375 10.65625 -3.359375 C 12.082031 -3.359375 13.257812 -3.828125 14.1875 -4.765625 C 15.125 -5.710938 15.59375 -6.921875 15.59375 -8.390625 C 15.59375 -9.878906 15.117188 -11.085938 14.171875 -12.015625 C 13.234375 -12.953125 12.050781 -13.421875 10.625 -13.421875 C 9.25 -13.421875 8.085938 -12.941406 7.140625 -11.984375 C 6.203125 -11.035156 5.734375 -9.835938 5.734375 -8.390625 Z M 5.734375 -8.390625 "/></g></g></g><g fill="#ffffff" fill-opacity="1"><g transform="translate(180.690693, 100.325077)"><g><path d="M 11.609375 -17.203125 C 11.953125 -17.203125 12.453125 -17.117188 13.109375 -16.953125 L 13.109375 -12.890625 C 12.390625 -13.109375 11.710938 -13.21875 11.078125 -13.21875 C 9.703125 -13.21875 8.609375 -12.804688 7.796875 -11.984375 C 6.984375 -11.171875 6.578125 -10.085938 6.578125 -8.734375 L 6.578125 0 L 2.375 0 L 2.375 -16.78125 L 6.578125 -16.78125 L 6.578125 -14.125 L 6.640625 -14.125 C 7.109375 -15.101562 7.769531 -15.859375 8.625 -16.390625 C 9.488281 -16.929688 10.484375 -17.203125 11.609375 -17.203125 Z M 11.609375 -17.203125 "/></g></g></g><g fill="#ffffff" fill-opacity="1"><g transform="translate(192.961002, 100.325077)"><g><path d="M 6.578125 -26.421875 L 6.578125 -9.828125 L 13.03125 -16.78125 L 18.421875 -16.78125 L 11.21875 -9.15625 L 18.875 0 L 13.3125 0 L 6.640625 -8.5625 L 6.578125 -8.5625 L 6.578125 0 L 2.375 0 L 2.375 -26.421875 Z M 6.578125 -26.421875 "/></g></g></g><g fill="#ffffff" fill-opacity="1"><g transform="translate(210.405117, 100.325077)"><g><path d="M 8.109375 -17.203125 C 10.859375 -17.203125 12.863281 -16.347656 14.125 -14.640625 L 11.328125 -12.125 C 10.484375 -13.269531 9.390625 -13.84375 8.046875 -13.84375 C 7.367188 -13.84375 6.789062 -13.675781 6.3125 -13.34375 C 5.832031 -13.019531 5.59375 -12.59375 5.59375 -12.0625 C 5.59375 -11.238281 6.421875 -10.65625 8.078125 -10.3125 L 9.578125 -9.96875 C 11.421875 -9.570312 12.722656 -8.957031 13.484375 -8.125 C 14.253906 -7.300781 14.640625 -6.25 14.640625 -4.96875 C 14.640625 -3.332031 13.988281 -2.023438 12.6875 -1.046875 C 11.382812 -0.0664062 9.613281 0.421875 7.375 0.421875 C 4.550781 0.421875 2.382812 -0.441406 0.875 -2.171875 L 3.671875 -4.78125 C 4.390625 -3.988281 5.050781 -3.445312 5.65625 -3.15625 C 6.269531 -2.863281 6.9375 -2.71875 7.65625 -2.71875 C 8.425781 -2.71875 9.082031 -2.894531 9.625 -3.25 C 10.175781 -3.601562 10.453125 -4.070312 10.453125 -4.65625 C 10.453125 -5.601562 9.585938 -6.273438 7.859375 -6.671875 C 5.628906 -7.179688 4.234375 -7.582031 3.671875 -7.875 C 3.109375 -8.164062 2.65625 -8.515625 2.3125 -8.921875 C 1.976562 -9.335938 1.738281 -9.78125 1.59375 -10.25 C 1.457031 -10.726562 1.390625 -11.238281 1.390625 -11.78125 C 1.390625 -13.4375 2.023438 -14.753906 3.296875 -15.734375 C 4.566406 -16.710938 6.171875 -17.203125 8.109375 -17.203125 Z M 8.109375 -17.203125 "/></g></g></g><g clip-path="url(#779f8a8ce6)"><g clip-path="url(#8934f79e36)"><g clip-path="url(#a63673bcb7)"><path fill="#ffffff" d="M 32.753906 61.144531 C 23.695312 62.816406 14.839844 57.929688 7.800781 52.585938 C 7.070312 52.101562 3.886719 49.425781 5.429688 49.238281 C 7.789062 49.675781 9.660156 51.652344 12.226562 51.136719 C 20.632812 50.101562 28.476562 46.320312 35.835938 42.292969 C 45.027344 37.179688 54.105469 31.859375 62.9375 26.140625 C 73.878906 18.171875 87.386719 11.519531 101.183594 13.453125 C 107.050781 14.085938 112.597656 16.683594 117.207031 20.371094 C 122.773438 24.898438 117.292969 23.550781 113.730469 23.636719 C 83.84375 28.386719 61.574219 53.398438 32.753906 61.144531 Z M 32.753906 61.144531 " fill-opacity="1" fill-rule="nonzero"/></g></g></g><g clip-path="url(#3f4f8a89fa)"><g clip-path="url(#89392af9c7)"><g clip-path="url(#91e11747e5)"><path fill="#ffffff" d="M 40.710938 95.894531 C 31.652344 97.566406 22.800781 92.683594 15.761719 87.335938 C 15.03125 86.851562 11.84375 84.179688 13.386719 83.988281 C 15.75 84.425781 17.621094 86.402344 20.1875 85.890625 C 28.59375 84.851562 36.4375 81.070312 43.792969 77.046875 C 52.984375 71.933594 62.066406 66.613281 70.898438 60.890625 C 81.835938 52.921875 95.347656 46.269531 109.140625 48.203125 C 115.007812 48.839844 120.558594 51.4375 125.167969 55.121094 C 130.730469 59.648438 125.25 58.300781 121.691406 58.386719 C 91.800781 63.136719 69.53125 88.152344 40.710938 95.894531 Z M 40.710938 95.894531 " fill-opacity="1" fill-rule="nonzero"/></g></g></g></svg>