<svg xmlns="http://www.w3.org/2000/svg" xmlns:xlink="http://www.w3.org/1999/xlink" width="500" zoomAndPan="magnify" viewBox="0 0 375 374.999991" height="500" preserveAspectRatio="xMidYMid meet" version="1.0"><defs><clipPath id="5828f9ca64"><path d="M 7 69 L 340 69 L 340 210 L 7 210 Z M 7 69 " clip-rule="nonzero"/></clipPath><clipPath id="fa0ca2eedb"><path d="M -2.320312 155.195312 L 324.1875 36.976562 L 354.0625 119.484375 L 27.554688 237.703125 Z M -2.320312 155.195312 " clip-rule="nonzero"/></clipPath><clipPath id="338f819d65"><path d="M -2.320312 155.195312 L 324.1875 36.976562 L 354.0625 119.484375 L 27.554688 237.703125 Z M -2.320312 155.195312 " clip-rule="nonzero"/></clipPath><clipPath id="b57c6910be"><path d="M 30 170 L 363 170 L 363 310 L 30 310 Z M 30 170 " clip-rule="nonzero"/></clipPath><clipPath id="6d8da650cb"><path d="M 20.675781 255.605469 L 347.183594 137.386719 L 377.058594 219.894531 L 50.550781 338.113281 Z M 20.675781 255.605469 " clip-rule="nonzero"/></clipPath><clipPath id="49a1a6f15d"><path d="M 20.675781 255.605469 L 347.183594 137.386719 L 377.058594 219.894531 L 50.550781 338.113281 Z M 20.675781 255.605469 " clip-rule="nonzero"/></clipPath></defs><g clip-path="url(#5828f9ca64)"><g clip-path="url(#fa0ca2eedb)"><g clip-path="url(#338f819d65)"><path fill="#f23636" d="M 88 208.085938 C 61.832031 212.957031 36.300781 199.003906 16.015625 183.710938 C 13.910156 182.328125 4.730469 174.671875 9.183594 174.121094 C 16.003906 175.359375 21.390625 181.015625 28.804688 179.519531 C 53.089844 176.484375 75.769531 165.574219 97.042969 153.96875 C 123.625 139.226562 149.886719 123.890625 175.429688 107.402344 C 207.085938 84.449219 246.144531 65.261719 285.96875 70.707031 C 302.910156 72.484375 318.910156 79.902344 332.195312 90.441406 C 348.230469 103.394531 332.417969 99.570312 322.132812 99.839844 C 235.78125 113.691406 171.285156 185.648438 88.007812 208.089844 Z M 88 208.085938 " fill-opacity="1" fill-rule="nonzero"/></g></g></g><g clip-path="url(#b57c6910be)"><g clip-path="url(#6d8da650cb)"><g clip-path="url(#49a1a6f15d)"><path fill="#f23636" d="M 110.996094 308.5 C 84.828125 313.367188 59.296875 299.414062 39.011719 284.121094 C 36.90625 282.738281 27.726562 275.085938 32.179688 274.53125 C 39 275.769531 44.386719 281.425781 51.796875 279.933594 C 76.085938 276.894531 98.765625 265.984375 120.039062 254.378906 C 146.617188 239.636719 172.878906 224.300781 198.425781 207.816406 C 230.082031 184.863281 269.140625 165.671875 308.964844 171.117188 C 325.90625 172.894531 341.90625 180.3125 355.191406 190.851562 C 371.226562 203.804688 355.410156 199.980469 345.128906 200.253906 C 258.777344 214.105469 194.28125 286.058594 111.003906 308.5 Z M 110.996094 308.5 " fill-opacity="1" fill-rule="nonzero"/></g></g></g></svg>