<svg xmlns="http://www.w3.org/2000/svg" xmlns:xlink="http://www.w3.org/1999/xlink" width="500" zoomAndPan="magnify" viewBox="0 0 375 374.999991" height="500" preserveAspectRatio="xMidYMid meet" version="1.0"><defs><clipPath id="82aabe5d7e"><path d="M 7 70 L 340 70 L 340 210 L 7 210 Z M 7 70 " clip-rule="nonzero"/></clipPath><clipPath id="332d8513f5"><path d="M -2.320312 155.8125 L 324.1875 37.59375 L 354.0625 120.101562 L 27.554688 238.320312 Z M -2.320312 155.8125 " clip-rule="nonzero"/></clipPath><clipPath id="a356375a45"><path d="M -2.320312 155.8125 L 324.1875 37.59375 L 354.0625 120.101562 L 27.554688 238.320312 Z M -2.320312 155.8125 " clip-rule="nonzero"/></clipPath><clipPath id="1d5c1564ae"><path d="M 30 170 L 363 170 L 363 311 L 30 311 Z M 30 170 " clip-rule="nonzero"/></clipPath><clipPath id="ffc09f64e3"><path d="M 20.675781 256.222656 L 347.183594 138.003906 L 377.058594 220.511719 L 50.550781 338.730469 Z M 20.675781 256.222656 " clip-rule="nonzero"/></clipPath><clipPath id="a4f4a2b702"><path d="M 20.675781 256.222656 L 347.183594 138.003906 L 377.058594 220.511719 L 50.550781 338.730469 Z M 20.675781 256.222656 " clip-rule="nonzero"/></clipPath></defs><g clip-path="url(#82aabe5d7e)"><g clip-path="url(#332d8513f5)"><g clip-path="url(#a356375a45)"><path fill="#ffffff" d="M 88 208.703125 C 61.832031 213.574219 36.300781 199.621094 16.015625 184.328125 C 13.910156 182.941406 4.730469 175.289062 9.183594 174.738281 C 16.003906 175.972656 21.390625 181.632812 28.804688 180.136719 C 53.089844 177.101562 75.769531 166.191406 97.042969 154.585938 C 123.625 139.839844 149.886719 124.507812 175.429688 108.019531 C 207.085938 85.066406 246.144531 65.878906 285.96875 71.324219 C 302.910156 73.101562 318.910156 80.515625 332.195312 91.058594 C 348.230469 104.011719 332.417969 100.1875 322.132812 100.457031 C 235.78125 114.308594 171.285156 186.265625 88.007812 208.707031 Z M 88 208.703125 " fill-opacity="1" fill-rule="nonzero"/></g></g></g><g clip-path="url(#1d5c1564ae)"><g clip-path="url(#ffc09f64e3)"><g clip-path="url(#a4f4a2b702)"><path fill="#ffffff" d="M 110.996094 309.113281 C 84.828125 313.984375 59.296875 300.03125 39.011719 284.738281 C 36.90625 283.355469 27.726562 275.699219 32.179688 275.148438 C 39 276.386719 44.386719 282.042969 51.796875 280.546875 C 76.085938 277.511719 98.765625 266.601562 120.039062 254.996094 C 146.617188 240.253906 172.878906 224.917969 198.425781 208.429688 C 230.082031 185.476562 269.140625 166.289062 308.964844 171.734375 C 325.90625 173.511719 341.90625 180.929688 355.191406 191.46875 C 371.226562 204.421875 355.410156 200.597656 345.128906 200.867188 C 258.777344 214.71875 194.28125 286.675781 111.003906 309.117188 Z M 110.996094 309.113281 " fill-opacity="1" fill-rule="nonzero"/></g></g></g></svg>